<svg id="Layer_1" data-name="Layer 1" xmlns="http://www.w3.org/2000/svg" viewBox="0 0 671.91 777.69"><defs><style>.cls-1{fill:#e964a5;}.cls-1,.cls-2,.cls-3,.cls-4,.cls-6{stroke:#fff;stroke-width:5px;}.cls-1,.cls-2,.cls-3,.cls-4,.cls-5,.cls-6{stroke-miterlimit:10;}.cls-2{fill:#69c9ca;}.cls-3{fill:#a14b9d;}.cls-4{fill:#e990bc;}.cls-5{fill:none;stroke:#231f20;stroke-width:6px;}.cls-6{fill:#f8d0e2;}</style></defs><path class="cls-1" d="M457,400.66a387.53,387.53,0,0,1-2.14,40.81A280.25,280.25,0,0,0,331.49,483a274.35,274.35,0,0,0-.22-165.39,279.8,279.8,0,0,0,123.51,41.92A385.12,385.12,0,0,1,457,400.66Z" transform="translate(-64.05 -11.16)"/><path class="cls-2" d="M71.27,127.79c-1.58,0-3.15,0-4.72,0V15c1.57,0,3.15,0,4.72,0a384.92,384.92,0,0,1,131.4,23C338.65,87.2,439,210.73,454.78,359.54a279.49,279.49,0,0,1-123.51-41.92A273.38,273.38,0,0,0,213.9,168,271.47,271.47,0,0,0,71.27,127.79Z" transform="translate(-64.05 -11.16)"/><path class="cls-3" d="M454.82,441.47c-15.68,149.07-116.29,272.84-252.55,322a384.65,384.65,0,0,1-131,22.82c-1.57,0-3.15,0-4.72,0V673.47c1.57,0,3.14,0,4.72,0A271.58,271.58,0,0,0,213.2,633.75,273.61,273.61,0,0,0,331.49,483,279.62,279.62,0,0,1,454.82,441.47Z" transform="translate(-64.05 -11.16)"/><path class="cls-4" d="M733.45,203.89V598.1A282.84,282.84,0,0,0,612.73,473.2V328.1A282.65,282.65,0,0,0,733.45,203.89Z" transform="translate(-64.05 -11.16)"/><path class="cls-5" d="M248.65,316.27" transform="translate(-64.05 -11.16)"/><path class="cls-3" d="M733.45,13.66V203.89A282.68,282.68,0,0,1,612.73,328.1V13.66Z" transform="translate(-64.05 -11.16)"/><path class="cls-2" d="M733.45,598.1V785H612.73V473.2A282.63,282.63,0,0,1,733.45,598.1Z" transform="translate(-64.05 -11.16)"/><path class="cls-6" d="M612.73,328.1V473.2a280.2,280.2,0,0,0-132.16-32.89q-13,0-25.75,1.16A387.53,387.53,0,0,0,457,400.66a385.12,385.12,0,0,0-2.18-41.12c8.65.81,17.42,1.22,26.26,1.22A280.13,280.13,0,0,0,612.73,328.1Z" transform="translate(-64.05 -11.16)"/></svg>