<svg id="Layer_1" data-name="Layer 1" xmlns="http://www.w3.org/2000/svg" xmlns:xlink="http://www.w3.org/1999/xlink" viewBox="0 0 830.82 570.98"><defs><style>.cls-1,.cls-6,.cls-9{fill:none;}.cls-2{fill:#a7509f;}.cls-3{fill:#231f20;}.cls-4{fill:#4f3d98;}.cls-5{clip-path:url(#clip-path);}.cls-6{stroke:#000;stroke-width:0px;opacity:0;}.cls-6,.cls-9{stroke-miterlimit:10;}.cls-7{fill:#6b52a2;}.cls-8{clip-path:url(#clip-path-2);}.cls-9{stroke:#6b52a2;stroke-width:1.43px;}.cls-10{clip-path:url(#clip-path-3);}.cls-11{clip-path:url(#clip-path-4);}.cls-12{clip-path:url(#clip-path-5);}.cls-13{clip-path:url(#clip-path-6);}</style><clipPath id="clip-path" transform="translate(-64.59 -164.51)"><rect class="cls-1" x="171.43" y="288.06" width="258" height="56.2"/></clipPath><clipPath id="clip-path-2" transform="translate(-64.59 -164.51)"><rect class="cls-1" x="147.75" y="405.81" width="290" height="181"/></clipPath><clipPath id="clip-path-3" transform="translate(-64.59 -164.51)"><rect class="cls-1" x="491.08" y="517.74" width="349" height="85"/></clipPath><clipPath id="clip-path-4" transform="translate(-64.59 -164.51)"><rect class="cls-1" x="562.47" y="258.74" width="168" height="72"/></clipPath><clipPath id="clip-path-5" transform="translate(-64.59 -164.51)"><rect class="cls-1" x="576.7" y="355.26" width="150" height="36"/></clipPath><clipPath id="clip-path-6" transform="translate(-64.59 -164.51)"><rect class="cls-1" x="540" y="413.5" width="232" height="85"/></clipPath></defs><rect class="cls-2" width="830.82" height="551.8" rx="46.28"/><rect class="cls-3" x="29.44" y="32.06" width="774.77" height="483.02" rx="46.28"/><rect class="cls-4" x="287.41" y="529.9" width="256" height="41.08" rx="20.49"/><g class="cls-5"><path class="cls-6" d="M300.43,316.16Z" transform="translate(-64.59 -164.51)"/><polyline class="cls-7" points="128.91 124.67 122.76 130.9 123.59 131.73 128.91 127.05 134.19 131.73 135.01 130.9 128.91 124.67"/><path class="cls-7" d="M205,304.71c.41-1.65.5-2.11,3.85-2.11,1.19,0,1.56,0,1.56-.92,0-.51-.5-.51-.64-.51-1.29,0-4.59.14-5.87.14s-4.59-.14-5.92-.14c-.37,0-.87,0-.87.92,0,.51.41.51,1.28.51a17.27,17.27,0,0,1,1.75.09c.82.09,1.23.14,1.23.73a4.12,4.12,0,0,1-.18.87l-2.75,11.2h-14l2.7-10.78c.42-1.65.55-2.11,3.86-2.11,1.19,0,1.56,0,1.56-.92,0-.51-.51-.51-.65-.51-1.28,0-4.58.14-5.87.14s-4.58-.14-5.91-.14c-.37,0-.88,0-.88.92,0,.51.42.51,1.29.51a17,17,0,0,1,1.74.09c.83.09,1.24.14,1.24.73a3.69,3.69,0,0,1-.18.87l-6.15,24.64c-.46,1.79-.55,2.15-4.17,2.15-.83,0-1.24,0-1.24.92,0,.5.55.5.64.5,1.28,0,4.54-.13,5.82-.13,1,0,2,0,2.94,0s2,.09,3,.09c.37,0,.92,0,.92-.91,0-.51-.41-.51-1.28-.51-1.7,0-3,0-3-.82a4.12,4.12,0,0,1,.14-.78l3.12-12.57h14c-1.93,7.61-3,12-3.16,12.66-.46,1.47-1.33,1.51-4.18,1.51-.69,0-1.1,0-1.1.92,0,.5.55.5.64.5,1.29,0,4.54-.13,5.83-.13,1,0,2,0,2.94,0s2,.09,3,.09c.36,0,.91,0,.91-.91,0-.51-.41-.51-1.28-.51-1.7,0-3,0-3-.82a4.12,4.12,0,0,1,.14-.78L205,304.71" transform="translate(-64.59 -164.51)"/><path class="cls-7" d="M219.09,299.75c0-.82,0-1.65-.92-1.65s-.92.83-.92,1.65v42.57c0,.83,0,1.65.92,1.65s.92-.82.92-1.65V299.75" transform="translate(-64.59 -164.51)"/><path class="cls-7" d="M246.68,301.86a3.39,3.39,0,0,0,.13-.69c0-.45-.32-.5-.55-.5-.46,0-.5.09-.69.92L238,331.91c-3.49-.42-5.23-2.11-5.23-5.14,0-.92,0-2.11,2.48-8.53a6.89,6.89,0,0,0,.5-2.25,3.63,3.63,0,0,0-3.76-3.76c-4.36,0-6,6.65-6,7.06s.45.46.55.46c.46,0,.5-.09.73-.82,1.24-4.36,3.07-5.69,4.63-5.69.37,0,1.15,0,1.15,1.47a11.9,11.9,0,0,1-1.05,3.94c-2.21,5.78-2.21,7-2.21,7.75,0,4.36,3.58,6.24,8,6.52-.37,1.65-.37,1.74-1,4.17-.14.51-1.06,4.22-1.06,4.36s0,.46.55.46a.42.42,0,0,0,.41-.19,7.38,7.38,0,0,0,.55-1.88l1.75-6.83c1.7,0,5.73,0,10-4.91a17.14,17.14,0,0,0,3.35-5.5,30.48,30.48,0,0,0,1.42-7.16c0-2.57-1.23-3.21-2-3.21a2.5,2.5,0,0,0-2.3,2.2,1.52,1.52,0,0,0,.69,1.24,5.21,5.21,0,0,1,1.65,3.9c0,2.93-2.38,6.7-4,8.35-4,4.08-7,4.08-8.62,4.08l7.57-30.14" transform="translate(-64.59 -164.51)"/><path class="cls-7" d="M268.51,321.82a1.44,1.44,0,0,0,0-1.56l-8-21.1c-.27-.78-.55-1.06-1.05-1.06a.92.92,0,0,0-.92.92c0,.14,0,.23.23.73L266.86,321l-8.12,21.19a1.56,1.56,0,0,0-.23.83.92.92,0,0,0,.92.91c.59,0,.78-.46,1-.91l8.12-21.24" transform="translate(-64.59 -164.51)"/><path class="cls-7" d="M318.07,326.4c.64,0,1.51,0,1.51-.91s-.87-.92-1.56-.92H290.64c-.69,0-1.56,0-1.56.92s.87.91,1.51.91h27.48m-.05-8.9c.69,0,1.56,0,1.56-.91s-.87-.92-1.51-.92H290.59c-.64,0-1.51,0-1.51.92s.87.91,1.56.91Z" transform="translate(-64.59 -164.51)"/><path class="cls-7" d="M367.39,321.82a3.2,3.2,0,0,0,.23-.64.49.49,0,0,0-.54-.51c-.42,0-.51.28-.6.55-3,6.79-4.68,9.86-12.52,9.86h-6.7a5.78,5.78,0,0,1-1,0c-.46-.05-.6-.09-.6-.46a3.77,3.77,0,0,1,.23-1.06L349,317h4.54c3.9,0,3.9,1,3.9,2.11a9,9,0,0,1-.32,2.25,1.47,1.47,0,0,0-.14.5.54.54,0,0,0,.6.51c.37,0,.5-.23.69-.92l2.61-10.73a.52.52,0,0,0-.55-.51c-.41,0-.5.28-.64.83-1,3.48-1.79,4.54-6,4.54h-4.31l2.75-11.06c.41-1.6.46-1.78,2.48-1.78h6.46c5.6,0,7,1.32,7,5.09a11.1,11.1,0,0,1-.19,2.43c0,.27,0,.59,0,.82a.53.53,0,0,0,.55.55c.5,0,.55-.27.64-1.14l.92-7.94c.14-1.24-.09-1.24-1.24-1.24H345.52c-.92,0-1.38,0-1.38.92,0,.51.41.51,1.28.51,1.7,0,3,0,3,.82a3.79,3.79,0,0,1-.22,1.1l-6.06,24.27c-.46,1.79-.55,2.15-4.17,2.15-.78,0-1.29,0-1.29.87,0,.55.41.55,1.29.55h23.8c1.06,0,1.1,0,1.42-.78l4.22-9.9" transform="translate(-64.59 -164.51)"/><path class="cls-7" d="M378.61,299.75c0-.82,0-1.65-.91-1.65s-.92.83-.92,1.65v42.57c0,.83,0,1.65.92,1.65s.91-.82.91-1.65V299.75" transform="translate(-64.59 -164.51)"/><path class="cls-7" d="M406.2,301.86a2.81,2.81,0,0,0,.14-.69c0-.45-.32-.5-.55-.5-.46,0-.51.09-.69.92l-7.61,30.32c-3.49-.42-5.23-2.11-5.23-5.14,0-.92,0-2.11,2.47-8.53a6.62,6.62,0,0,0,.51-2.25,3.64,3.64,0,0,0-3.76-3.76c-4.36,0-6.06,6.65-6.06,7.06s.46.46.55.46c.46,0,.51-.09.74-.82,1.24-4.36,3.07-5.69,4.63-5.69.37,0,1.15,0,1.15,1.47a11.7,11.7,0,0,1-1.06,3.94c-2.2,5.78-2.2,7-2.2,7.75,0,4.36,3.58,6.24,8,6.52-.37,1.65-.37,1.74-1,4.17-.14.51-1.05,4.22-1.05,4.36s0,.46.55.46a.42.42,0,0,0,.41-.19,7.82,7.82,0,0,0,.55-1.88L398.4,333c1.7,0,5.74,0,10.05-4.91a17.33,17.33,0,0,0,3.35-5.5,31,31,0,0,0,1.42-7.16c0-2.57-1.24-3.21-2-3.21a2.5,2.5,0,0,0-2.29,2.2,1.49,1.49,0,0,0,.69,1.24,5.25,5.25,0,0,1,1.65,3.9c0,2.93-2.39,6.7-4,8.35-4,4.08-7,4.08-8.63,4.08l7.57-30.14" transform="translate(-64.59 -164.51)"/><path class="cls-7" d="M428.16,321.82a1.44,1.44,0,0,0,0-1.56l-8-21.1c-.28-.78-.56-1.06-1.06-1.06a.92.92,0,0,0-.92.92c0,.14,0,.23.23.73L426.51,321l-8.12,21.19a1.56,1.56,0,0,0-.23.83.92.92,0,0,0,.92.91c.6,0,.78-.46,1-.91l8.12-21.24" transform="translate(-64.59 -164.51)"/></g><g class="cls-8"><path class="cls-6" d="M292.75,496.31Z" transform="translate(-64.59 -164.51)"/><path class="cls-7" d="M156.81,433.09a3.78,3.78,0,0,1-3.95-4c0-1,.89-6,2.37-8.16a6.49,6.49,0,0,1,5.42-3.19c3.91,0,4,4,4,4.74,0,2.58-2.3,10.66-7.83,10.66m8.47-12c-.36-2.22-1.83-4.23-4.63-4.23-2.19,0-4.52.57-7.33,3.37a10.65,10.65,0,0,0-3.23,7.44,6.38,6.38,0,0,0,6.61,6.39c8.55,0,12.28-12.07,12.28-17.2,0-5.71-3.34-9.3-7.75-9.3a6.81,6.81,0,0,0-6.86,5.67,1.22,1.22,0,0,0,1.36,1.26,2,2,0,0,0,1.94-1.91c0-1.25-1.11-1.25-1.69-1.25a5.81,5.81,0,0,1,5.17-2.88c2.63,0,5.14,1.87,5.14,6.5a24.57,24.57,0,0,1-1,6.14Z" transform="translate(-64.59 -164.51)"/><path class="cls-7" d="M197.16,411.54c.32-1.29.39-1.65,3-1.65.94,0,1.23,0,1.23-.71,0-.4-.4-.4-.51-.4-1,0-3.59.11-4.59.11s-3.6-.11-4.64-.11c-.28,0-.68,0-.68.72,0,.39.32.39,1,.39a13.36,13.36,0,0,1,1.36.07c.65.08,1,.11,1,.58a4.42,4.42,0,0,1-.14.68L192,420h-11l2.12-8.45c.32-1.29.43-1.65,3-1.65.94,0,1.22,0,1.22-.71,0-.4-.39-.4-.5-.4-1,0-3.59.11-4.59.11s-3.6-.11-4.64-.11c-.29,0-.68,0-.68.72,0,.39.32.39,1,.39a13.36,13.36,0,0,1,1.36.07c.65.08,1,.11,1,.58a3.64,3.64,0,0,1-.14.68l-4.82,19.29c-.36,1.4-.43,1.69-3.26,1.69-.65,0-1,0-1,.71,0,.4.44.4.51.4,1,0,3.55-.11,4.56-.11.75,0,1.54,0,2.3,0s1.58.07,2.33.07c.29,0,.72,0,.72-.72,0-.39-.32-.39-1-.39-1.33,0-2.34,0-2.34-.65a3.12,3.12,0,0,1,.11-.61l2.44-9.84h10.95c-1.5,6-2.33,9.37-2.47,9.91-.36,1.15-1,1.19-3.27,1.19-.54,0-.86,0-.86.71,0,.4.43.4.5.4,1,0,3.55-.11,4.56-.11.75,0,1.54,0,2.3,0s1.58.07,2.33.07c.29,0,.72,0,.72-.72,0-.39-.32-.39-1-.39-1.33,0-2.34,0-2.34-.65a3.12,3.12,0,0,1,.11-.61l4.85-19.4" transform="translate(-64.59 -164.51)"/><path class="cls-7" d="M214.34,441.93c0-.11,0-.18-.61-.79-4.49-4.53-5.64-11.32-5.64-16.81,0-6.25,1.37-12.5,5.79-17,.46-.43.46-.5.46-.61a.32.32,0,0,0-.36-.36c-.36,0-3.59,2.45-5.71,7a27.68,27.68,0,0,0,.11,22.16c2.16,4.41,5.24,6.75,5.6,6.75a.32.32,0,0,0,.36-.36" transform="translate(-64.59 -164.51)"/><path class="cls-7" d="M222.64,432.91c-2.16,0-2.3-2.76-2.3-3.37a28,28,0,0,1,1.65-7.15c1.12-2.66,3-4.16,4.46-4.16,2.33,0,2.83,2.9,2.83,3.16s-2,8.08-2.08,8.22c-.54,1-2.55,3.3-4.56,3.3m10-15.08a.36.36,0,0,0-.36-.36c-.4,0-1.83,1.44-2.44,2.48a3.56,3.56,0,0,0-3.34-2.51c-4.24,0-8.66,5.31-8.66,10.52,0,3.52,2.12,5.74,4.74,5.74a6.16,6.16,0,0,0,4.24-2.15c-.32,1.26-1.51,6.1-1.62,6.43-.28,1-.57,1.15-2.58,1.18-.47,0-.83,0-.83.72,0,0,0,.4.47.4,1.15,0,2.41-.11,3.59-.11s2.51.11,3.7.11c.18,0,.65,0,.65-.72,0-.4-.36-.4-.94-.4-1.72,0-1.72-.25-1.72-.57a3.77,3.77,0,0,1,.14-.79Z" transform="translate(-64.59 -164.51)"/><path class="cls-7" d="M235.46,435.78a3.2,3.2,0,0,0-.22,1.05,2.22,2.22,0,0,0,2.38,2.13c2.5,0,3.61-3.46,3.61-3.84s-.33-.32-.4-.32c-.36,0-.38.15-.48.43-.58,2-1.68,3-2.66,3-.5,0-.62-.33-.62-.88a4,4,0,0,1,.4-1.6c.25-.68.52-1.36.8-2s1.13-2.88,1.23-3.18a3.22,3.22,0,0,0,.15-.8,2.22,2.22,0,0,0-2.38-2.13c-2.48,0-3.64,3.41-3.64,3.83s.35.33.43.33c.35,0,.37-.13.45-.41.65-2.15,1.75-3.05,2.68-3.05.4,0,.63.2.63.88a6.69,6.69,0,0,1-.78,2.5l-1.58,4M240.58,423a1,1,0,0,0-1-1,1.49,1.49,0,0,0-1.4,1.38,1,1,0,0,0,1,.95A1.49,1.49,0,0,0,240.58,423Z" transform="translate(-64.59 -164.51)"/><path class="cls-7" d="M251.65,433.27c0-2.37-.9-3.77-2.3-3.77a1.91,1.91,0,1,0,0,3.81,1.87,1.87,0,0,0,1.25-.47c.11-.07.15-.11.18-.11s.07,0,.07.54a8.65,8.65,0,0,1-2.44,6c-.39.39-.39.47-.39.58a.37.37,0,0,0,.36.39c.39,0,3.27-2.76,3.27-7" transform="translate(-64.59 -164.51)"/><path class="cls-7" d="M268.29,422.1a5.76,5.76,0,0,1,1.87-2.51,4.58,4.58,0,0,1,2.91-1.36c1.43,0,2.3,1.25,2.3,3.37a25.6,25.6,0,0,1-1.83,7.61c-1.23,2.52-3,3.7-4.28,3.7-2.37,0-2.84-3-2.84-3.19a2.21,2.21,0,0,1,.11-.58l1.76-7M262,437.69c-.29,1.22-.36,1.47-1.94,1.47-.43,0-.83,0-.83.69a.41.41,0,0,0,.47.43c1,0,2-.11,3-.11,1.18,0,2.41.11,3.56.11.17,0,.64,0,.64-.72,0-.4-.36-.4-.86-.4-1.8,0-1.8-.25-1.8-.57s1.51-6.29,1.76-7.18a3.59,3.59,0,0,0,3.31,2.29c4.16,0,8.65-5.24,8.65-10.52,0-3.37-2-5.74-4.77-5.74-1.8,0-3.52,1.29-4.71,2.69a3.17,3.17,0,0,0-3.23-2.69,3,3,0,0,0-2.66,2,14.93,14.93,0,0,0-1.11,3.48c0,.36.36.36.43.36.36,0,.39,0,.61-.82.61-2.55,1.33-4.27,2.62-4.27.61,0,1.12.28,1.12,1.65a6.39,6.39,0,0,1-.26,1.83Z" transform="translate(-64.59 -164.51)"/><path class="cls-7" d="M281.36,435.78a3.2,3.2,0,0,0-.22,1.05,2.22,2.22,0,0,0,2.38,2.13c2.5,0,3.61-3.46,3.61-3.84s-.33-.32-.4-.32c-.36,0-.38.15-.48.43-.58,2-1.68,3-2.66,3-.5,0-.62-.33-.62-.88a4,4,0,0,1,.4-1.6c.25-.68.52-1.36.8-2s1.13-2.88,1.23-3.18a3.22,3.22,0,0,0,.15-.8,2.22,2.22,0,0,0-2.38-2.13c-2.48,0-3.64,3.41-3.64,3.83s.35.33.43.33c.35,0,.37-.13.45-.41.65-2.15,1.75-3.05,2.68-3.05.4,0,.63.2.63.88a6.69,6.69,0,0,1-.78,2.5l-1.58,4M286.47,423a1,1,0,0,0-1-1,1.49,1.49,0,0,0-1.4,1.38,1,1,0,0,0,1,.95A1.48,1.48,0,0,0,286.47,423Z" transform="translate(-64.59 -164.51)"/><path class="cls-7" d="M300.63,424.33a26.12,26.12,0,0,0-2.37-11.21c-2.15-4.41-5.24-6.75-5.6-6.75a.35.35,0,0,0-.36.36c0,.11,0,.18.68.83,3.52,3.55,5.57,9.26,5.57,16.77,0,6.14-1.33,12.46-5.78,17-.47.43-.47.5-.47.61a.35.35,0,0,0,.36.36c.36,0,3.59-2.44,5.71-7a26.09,26.09,0,0,0,2.26-10.95" transform="translate(-64.59 -164.51)"/><line class="cls-9" x1="84.1" y1="284.1" x2="239.64" y2="284.1"/><path class="cls-7" d="M210.11,482a3.78,3.78,0,0,1-4-4.05c0-1,.89-6,2.37-8.16a6.49,6.49,0,0,1,5.42-3.19c3.91,0,4,4,4,4.74,0,2.58-2.3,10.66-7.83,10.66m8.47-12c-.36-2.22-1.83-4.23-4.63-4.23-2.19,0-4.53.57-7.33,3.37a10.65,10.65,0,0,0-3.23,7.44A6.38,6.38,0,0,0,210,483c8.55,0,12.28-12.07,12.28-17.2,0-5.71-3.34-9.31-7.75-9.31a6.82,6.82,0,0,0-6.86,5.68,1.22,1.22,0,0,0,1.36,1.26,2,2,0,0,0,1.94-1.91c0-1.26-1.11-1.26-1.69-1.26a5.81,5.81,0,0,1,5.17-2.87c2.63,0,5.14,1.87,5.14,6.5a24.64,24.64,0,0,1-1,6.14Z" transform="translate(-64.59 -164.51)"/><path class="cls-7" d="M229.34,481.81c-2.16,0-2.3-2.76-2.3-3.37a28,28,0,0,1,1.65-7.15c1.12-2.66,3-4.17,4.46-4.17,2.33,0,2.83,2.91,2.83,3.17s-2,8.08-2.08,8.22c-.54,1-2.55,3.3-4.56,3.3m9.95-15.08a.36.36,0,0,0-.36-.36c-.4,0-1.83,1.44-2.44,2.48a3.56,3.56,0,0,0-3.34-2.51c-4.24,0-8.66,5.31-8.66,10.52,0,3.52,2.12,5.74,4.74,5.74a6.16,6.16,0,0,0,4.24-2.15c-.32,1.26-1.51,6.1-1.62,6.43-.28,1-.57,1.15-2.58,1.18-.47,0-.83,0-.83.72,0,0,0,.4.47.4,1.15,0,2.41-.11,3.59-.11s2.51.11,3.7.11c.18,0,.65,0,.65-.72,0-.4-.36-.4-.94-.4-1.72,0-1.72-.25-1.72-.57a3.77,3.77,0,0,1,.14-.79Z" transform="translate(-64.59 -164.51)"/><path class="cls-7" d="M242.06,484.58a3.2,3.2,0,0,0-.22,1.05,2.22,2.22,0,0,0,2.38,2.13c2.5,0,3.61-3.46,3.61-3.83s-.33-.33-.4-.33c-.35,0-.38.15-.48.43-.58,2-1.68,3-2.66,3-.5,0-.62-.33-.62-.88a4,4,0,0,1,.4-1.6c.25-.68.52-1.36.8-2s1.13-2.88,1.23-3.18a3.22,3.22,0,0,0,.15-.8,2.22,2.22,0,0,0-2.38-2.13c-2.48,0-3.64,3.4-3.64,3.83s.35.33.43.33c.35,0,.37-.13.45-.41.65-2.15,1.75-3,2.68-3,.4,0,.63.2.63.88a6.69,6.69,0,0,1-.78,2.5l-1.58,4m5.12-12.73a1,1,0,0,0-1-1,1.49,1.49,0,0,0-1.4,1.38,1,1,0,0,0,1,1A1.49,1.49,0,0,0,247.18,471.85Z" transform="translate(-64.59 -164.51)"/><path class="cls-7" d="M343.16,452.83c.51,0,1.19,0,1.19-.72s-.68-.71-1.22-.71H321.69c-.54,0-1.22,0-1.22.71s.68.72,1.18.72h21.51m0-7c.54,0,1.22,0,1.22-.72s-.68-.72-1.19-.72H321.65c-.5,0-1.18,0-1.18.72s.68.72,1.22.72Z" transform="translate(-64.59 -164.51)"/><path class="cls-7" d="M380,449.35c.61,0,1.26,0,1.26-.72s-.65-.72-1.26-.72H360.59c-.61,0-1.25,0-1.25.72s.64.72,1.25.72H380" transform="translate(-64.59 -164.51)"/><path class="cls-7" d="M399.62,429a2.33,2.33,0,0,1-.72,1.32c-1.58,2-3,2.55-4.06,2.55-1.8,0-2.3-2-2.3-3.37a26.24,26.24,0,0,1,2-7.87c1.11-2.12,2.73-3.44,4.16-3.44,2.34,0,2.84,2.94,2.84,3.16a2.87,2.87,0,0,1-.11.61l-1.79,7m7.47-20.26s0-.4-.47-.4-3.95.33-4.56.4c-.29,0-.5.21-.5.68s.32.43.86.43c1.72,0,1.79.26,1.79.61l-.1.72L402,419.73a3.59,3.59,0,0,0-3.3-2.29c-4.2,0-8.66,5.27-8.66,10.52,0,3.37,2,5.74,4.78,5.74.72,0,2.51-.14,4.67-2.69a3.25,3.25,0,0,0,3.26,2.69,3,3,0,0,0,2.66-2,18.67,18.67,0,0,0,1.08-3.56c0-.36-.32-.36-.43-.36-.36,0-.4.15-.5.65-.61,2.33-1.26,4.45-2.73,4.45-1,0-1.08-.93-1.08-1.65a5.89,5.89,0,0,1,.21-1.72Z" transform="translate(-64.59 -164.51)"/><path class="cls-7" d="M415.19,422.1a5.76,5.76,0,0,1,1.87-2.51,4.58,4.58,0,0,1,2.91-1.36c1.43,0,2.3,1.25,2.3,3.37a25.6,25.6,0,0,1-1.83,7.61c-1.23,2.52-2.95,3.7-4.28,3.7-2.37,0-2.84-3-2.84-3.19a2.21,2.21,0,0,1,.11-.58l1.76-7m-6.32,15.59c-.29,1.22-.36,1.47-1.94,1.47-.43,0-.83,0-.83.69a.41.41,0,0,0,.47.43c1,0,2-.11,3-.11,1.18,0,2.41.11,3.56.11.17,0,.64,0,.64-.72,0-.4-.36-.4-.86-.4-1.8,0-1.8-.25-1.8-.57s1.51-6.29,1.76-7.18a3.59,3.59,0,0,0,3.31,2.29c4.16,0,8.65-5.24,8.65-10.52,0-3.37-2-5.74-4.77-5.74-1.8,0-3.52,1.29-4.71,2.69a3.17,3.17,0,0,0-3.23-2.69,3,3,0,0,0-2.66,2,14.93,14.93,0,0,0-1.11,3.48c0,.36.36.36.43.36.36,0,.39,0,.61-.82.61-2.55,1.33-4.27,2.62-4.27.61,0,1.12.28,1.12,1.65a6.39,6.39,0,0,1-.26,1.83Z" transform="translate(-64.59 -164.51)"/><path class="cls-7" d="M428.26,435.78a3.2,3.2,0,0,0-.22,1.05,2.22,2.22,0,0,0,2.38,2.13c2.5,0,3.61-3.46,3.61-3.84s-.33-.32-.4-.32c-.36,0-.38.15-.48.43-.58,2-1.68,3-2.66,3-.5,0-.62-.33-.62-.88a4,4,0,0,1,.4-1.6c.25-.68.52-1.36.8-2s1.13-2.88,1.23-3.18a3.22,3.22,0,0,0,.15-.8,2.22,2.22,0,0,0-2.38-2.13c-2.48,0-3.64,3.41-3.64,3.83s.35.33.43.33c.35,0,.37-.13.45-.41.65-2.15,1.75-3.05,2.68-3.05.4,0,.63.2.63.88a6.69,6.69,0,0,1-.78,2.5l-1.58,4M433.37,423a1,1,0,0,0-1-1,1.49,1.49,0,0,0-1.4,1.38,1,1,0,0,0,1,.95A1.48,1.48,0,0,0,433.37,423Z" transform="translate(-64.59 -164.51)"/><line class="cls-9" x1="323.96" y1="284.1" x2="372.61" y2="284.1"/><path class="cls-7" d="M408.12,477.94a2.33,2.33,0,0,1-.72,1.32c-1.58,2-3,2.55-4.06,2.55-1.8,0-2.3-2-2.3-3.37a26.24,26.24,0,0,1,2-7.87c1.11-2.12,2.73-3.45,4.16-3.45,2.34,0,2.84,2.95,2.84,3.17a2.87,2.87,0,0,1-.11.61l-1.79,7m7.47-20.26s0-.4-.47-.4-3.95.33-4.56.4c-.29,0-.5.22-.5.68s.32.43.86.43c1.72,0,1.79.25,1.79.61l-.1.72-2.16,8.51a3.59,3.59,0,0,0-3.3-2.29c-4.2,0-8.66,5.27-8.66,10.52,0,3.37,2,5.74,4.78,5.74.72,0,2.51-.14,4.67-2.69a3.25,3.25,0,0,0,3.26,2.69,3,3,0,0,0,2.66-2,18.67,18.67,0,0,0,1.08-3.56c0-.36-.32-.36-.43-.36-.36,0-.4.15-.5.65-.61,2.33-1.26,4.45-2.73,4.45-1,0-1.08-.93-1.08-1.65a5.89,5.89,0,0,1,.21-1.72Z" transform="translate(-64.59 -164.51)"/><path class="cls-7" d="M423.15,467.84h3.38c.72,0,1.08,0,1.08-.72,0-.39-.36-.39-1-.39h-3.16c1.29-5.1,1.47-5.82,1.47-6a.94.94,0,0,0-1-1,1.53,1.53,0,0,0-1.44,1.29l-1.4,5.71h-3.37c-.72,0-1.08,0-1.08.68,0,.43.29.43,1,.43h3.16C418.16,478,418,478.65,418,479.3a3.16,3.16,0,0,0,3.3,3.3c3.66,0,5.71-5.24,5.71-5.53s-.29-.36-.43-.36c-.32,0-.36.11-.54.51-1.54,3.73-3.45,4.59-4.67,4.59-.75,0-1.11-.46-1.11-1.65a5.53,5.53,0,0,1,.22-1.72l2.65-10.6" transform="translate(-64.59 -164.51)"/><path class="cls-7" d="M186.81,530.19a3.78,3.78,0,0,1-3.95-4.05c0-1,.89-6,2.37-8.16a6.49,6.49,0,0,1,5.42-3.19c3.91,0,4,4,4,4.74,0,2.58-2.3,10.66-7.83,10.66m8.47-12c-.36-2.22-1.83-4.23-4.63-4.23-2.19,0-4.53.57-7.33,3.37a10.65,10.65,0,0,0-3.23,7.44,6.38,6.38,0,0,0,6.61,6.39c8.55,0,12.28-12.07,12.28-17.2,0-5.71-3.34-9.31-7.75-9.31a6.82,6.82,0,0,0-6.86,5.68,1.22,1.22,0,0,0,1.36,1.26,2,2,0,0,0,1.94-1.91c0-1.25-1.11-1.25-1.69-1.25a5.81,5.81,0,0,1,5.17-2.88c2.63,0,5.14,1.87,5.14,6.5a24.64,24.64,0,0,1-1,6.14Z" transform="translate(-64.59 -164.51)"/><path class="cls-7" d="M227.06,508.64c.32-1.29.39-1.65,3-1.65.94,0,1.23,0,1.23-.72,0-.39-.4-.39-.51-.39-1,0-3.59.11-4.59.11s-3.6-.11-4.64-.11c-.28,0-.68,0-.68.72,0,.39.32.39,1,.39a11.71,11.71,0,0,1,1.36.08c.65.07,1,.1,1,.57a4.42,4.42,0,0,1-.14.68l-2.16,8.77H211l2.12-8.45c.32-1.29.43-1.65,3-1.65.94,0,1.23,0,1.23-.72,0-.39-.4-.39-.51-.39-1,0-3.59.11-4.6.11s-3.59-.11-4.63-.11c-.29,0-.68,0-.68.72,0,.39.32.39,1,.39a11.71,11.71,0,0,1,1.36.08c.65.07,1,.1,1,.57a3.64,3.64,0,0,1-.14.68l-4.82,19.29c-.36,1.4-.43,1.68-3.26,1.68-.65,0-1,0-1,.72,0,.4.44.4.51.4,1,0,3.55-.11,4.56-.11.75,0,1.54,0,2.3,0s1.58.07,2.33.07c.29,0,.72,0,.72-.72,0-.4-.32-.4-1-.4-1.33,0-2.34,0-2.34-.64a3.12,3.12,0,0,1,.11-.61l2.44-9.84h10.95c-1.51,6-2.33,9.37-2.47,9.91-.36,1.15-1,1.18-3.27,1.18-.54,0-.86,0-.86.72,0,.4.43.4.5.4,1,0,3.55-.11,4.56-.11.75,0,1.54,0,2.3,0s1.58.07,2.33.07c.29,0,.72,0,.72-.72,0-.4-.32-.4-1-.4-1.33,0-2.34,0-2.34-.64a3.12,3.12,0,0,1,.11-.61l4.85-19.4" transform="translate(-64.59 -164.51)"/><path class="cls-7" d="M244.24,539c0-.11,0-.18-.61-.79-4.49-4.53-5.64-11.32-5.64-16.81,0-6.25,1.37-12.5,5.79-17,.46-.43.46-.5.46-.61a.32.32,0,0,0-.36-.36c-.36,0-3.59,2.45-5.71,7a27.68,27.68,0,0,0,.11,22.16c2.16,4.41,5.24,6.75,5.6,6.75a.32.32,0,0,0,.36-.36" transform="translate(-64.59 -164.51)"/><path class="cls-7" d="M252.64,530c-2.16,0-2.3-2.76-2.3-3.37a28,28,0,0,1,1.65-7.15c1.12-2.66,3-4.17,4.46-4.17,2.33,0,2.83,2.91,2.83,3.17s-2,8.08-2.08,8.22c-.54,1-2.55,3.3-4.56,3.3m9.95-15.08a.36.36,0,0,0-.36-.36c-.4,0-1.83,1.44-2.44,2.48a3.56,3.56,0,0,0-3.34-2.51c-4.24,0-8.66,5.31-8.66,10.52,0,3.52,2.12,5.74,4.74,5.74a6.16,6.16,0,0,0,4.24-2.15c-.32,1.26-1.51,6.1-1.62,6.43-.28,1-.57,1.15-2.58,1.18-.47,0-.83,0-.83.72,0,0,0,.4.47.4,1.15,0,2.41-.11,3.59-.11s2.51.11,3.7.11c.18,0,.65,0,.65-.72,0-.4-.36-.4-.94-.4-1.72,0-1.72-.25-1.72-.57a3.77,3.77,0,0,1,.14-.79Z" transform="translate(-64.59 -164.51)"/><path class="cls-7" d="M265.36,532.88a3.2,3.2,0,0,0-.22,1,2.22,2.22,0,0,0,2.38,2.13c2.5,0,3.61-3.46,3.61-3.84s-.33-.32-.4-.32c-.36,0-.38.15-.48.42-.58,2-1.68,3-2.66,3-.5,0-.62-.33-.62-.88a4,4,0,0,1,.4-1.6c.25-.68.52-1.36.8-2s1.13-2.88,1.23-3.18a3.22,3.22,0,0,0,.15-.8,2.22,2.22,0,0,0-2.38-2.13c-2.48,0-3.64,3.41-3.64,3.83s.35.33.43.33c.35,0,.37-.13.45-.4.65-2.16,1.75-3.06,2.68-3.06.4,0,.63.2.63.88a6.69,6.69,0,0,1-.78,2.5l-1.58,4m5.11-12.74a1,1,0,0,0-1-.95,1.49,1.49,0,0,0-1.4,1.38,1,1,0,0,0,1,.95A1.48,1.48,0,0,0,270.47,520.14Z" transform="translate(-64.59 -164.51)"/><path class="cls-7" d="M281.55,530.37c0-2.37-.9-3.77-2.3-3.77a1.85,1.85,0,0,0-1.91,1.91,1.87,1.87,0,0,0,1.91,1.9,1.83,1.83,0,0,0,1.25-.47c.11-.07.15-.11.18-.11s.07,0,.07.54a8.65,8.65,0,0,1-2.44,6c-.39.4-.39.47-.39.57a.37.37,0,0,0,.36.4c.39,0,3.27-2.77,3.27-7" transform="translate(-64.59 -164.51)"/><path class="cls-7" d="M298.19,519.2a5.76,5.76,0,0,1,1.87-2.51,4.6,4.6,0,0,1,2.91-1.37c1.43,0,2.3,1.26,2.3,3.38a25.74,25.74,0,0,1-1.83,7.62c-1.23,2.51-2.95,3.69-4.28,3.69-2.37,0-2.84-3-2.84-3.19a2.21,2.21,0,0,1,.11-.58l1.76-7m-6.32,15.59c-.29,1.22-.36,1.47-1.94,1.47-.43,0-.83,0-.83.68a.41.41,0,0,0,.47.44c1,0,2-.11,3-.11,1.18,0,2.41.11,3.56.11.17,0,.64,0,.64-.72,0-.4-.36-.4-.86-.4-1.8,0-1.8-.25-1.8-.57s1.51-6.29,1.76-7.18a3.59,3.59,0,0,0,3.31,2.29c4.16,0,8.65-5.24,8.65-10.52,0-3.37-2-5.74-4.77-5.74-1.8,0-3.52,1.29-4.71,2.69a3.17,3.17,0,0,0-3.23-2.69,3,3,0,0,0-2.66,2,14.82,14.82,0,0,0-1.11,3.49c0,.35.36.35.43.35.36,0,.39,0,.61-.82.61-2.55,1.33-4.28,2.62-4.28.61,0,1.12.29,1.12,1.66a6.39,6.39,0,0,1-.26,1.83Z" transform="translate(-64.59 -164.51)"/><path class="cls-7" d="M311.26,532.88a3.2,3.2,0,0,0-.22,1,2.22,2.22,0,0,0,2.38,2.13c2.5,0,3.61-3.46,3.61-3.84s-.33-.32-.4-.32c-.36,0-.38.15-.48.42-.58,2-1.68,3-2.66,3-.5,0-.62-.33-.62-.88a4,4,0,0,1,.4-1.6c.25-.68.52-1.36.8-2s1.13-2.88,1.23-3.18a3.22,3.22,0,0,0,.15-.8,2.22,2.22,0,0,0-2.38-2.13c-2.48,0-3.64,3.41-3.64,3.83s.35.33.43.33c.35,0,.37-.13.45-.4.65-2.16,1.75-3.06,2.68-3.06.4,0,.63.2.63.88a6.69,6.69,0,0,1-.78,2.5l-1.58,4m5.11-12.74a1,1,0,0,0-1-.95,1.49,1.49,0,0,0-1.4,1.38,1,1,0,0,0,1,.95A1.48,1.48,0,0,0,316.37,520.14Z" transform="translate(-64.59 -164.51)"/><path class="cls-7" d="M330.63,521.43a26.12,26.12,0,0,0-2.37-11.21c-2.15-4.41-5.24-6.75-5.6-6.75a.35.35,0,0,0-.36.36c0,.11,0,.18.68.83,3.52,3.55,5.57,9.26,5.57,16.77,0,6.14-1.33,12.46-5.78,17-.47.43-.47.5-.47.61a.35.35,0,0,0,.36.36c.36,0,3.59-2.45,5.71-7a26.09,26.09,0,0,0,2.26-11" transform="translate(-64.59 -164.51)"/><line class="cls-9" x1="114.03" y1="381.18" x2="269.57" y2="381.18"/><path class="cls-7" d="M239,579a3.78,3.78,0,0,1-3.95-4c0-1,.89-6,2.37-8.16a6.49,6.49,0,0,1,5.42-3.19c3.91,0,4,4,4,4.74,0,2.58-2.3,10.66-7.83,10.66m8.47-12c-.36-2.22-1.83-4.23-4.63-4.23-2.19,0-4.52.57-7.33,3.37a10.65,10.65,0,0,0-3.23,7.44A6.38,6.38,0,0,0,238.9,580c8.55,0,12.28-12.07,12.28-17.2,0-5.71-3.34-9.31-7.75-9.31a6.82,6.82,0,0,0-6.86,5.68,1.22,1.22,0,0,0,1.36,1.26,2,2,0,0,0,1.94-1.91c0-1.25-1.11-1.25-1.69-1.25a5.81,5.81,0,0,1,5.17-2.88c2.62,0,5.14,1.87,5.14,6.5a24.64,24.64,0,0,1-1,6.14Z" transform="translate(-64.59 -164.51)"/><path class="cls-7" d="M259.89,568a5.76,5.76,0,0,1,1.87-2.51,4.6,4.6,0,0,1,2.91-1.37c1.43,0,2.3,1.26,2.3,3.38a25.74,25.74,0,0,1-1.83,7.62c-1.23,2.51-2.95,3.69-4.28,3.69-2.37,0-2.84-3-2.84-3.19a2.21,2.21,0,0,1,.11-.58l1.76-7m-6.32,15.59c-.29,1.22-.36,1.47-1.94,1.47-.43,0-.83,0-.83.68a.41.41,0,0,0,.47.44c1,0,2-.11,3-.11,1.18,0,2.41.11,3.56.11.17,0,.64,0,.64-.72,0-.4-.36-.4-.86-.4-1.8,0-1.8-.25-1.8-.57s1.51-6.29,1.76-7.18a3.59,3.59,0,0,0,3.31,2.29c4.16,0,8.65-5.24,8.65-10.52,0-3.37-2-5.74-4.77-5.74-1.8,0-3.52,1.29-4.71,2.69a3.17,3.17,0,0,0-3.23-2.69,3,3,0,0,0-2.66,2,14.82,14.82,0,0,0-1.11,3.49c0,.35.36.35.43.35.36,0,.39,0,.61-.82.61-2.55,1.33-4.28,2.62-4.28.61,0,1.12.29,1.12,1.66a6.39,6.39,0,0,1-.26,1.83Z" transform="translate(-64.59 -164.51)"/><path class="cls-7" d="M273,581.68a3.2,3.2,0,0,0-.22,1.05,2.22,2.22,0,0,0,2.38,2.13c2.5,0,3.61-3.46,3.61-3.84s-.33-.32-.4-.32c-.36,0-.38.15-.48.42-.58,2-1.68,3-2.66,3-.5,0-.62-.33-.62-.88a4,4,0,0,1,.4-1.6c.25-.68.52-1.36.8-2s1.13-2.88,1.23-3.18a3.22,3.22,0,0,0,.15-.8,2.22,2.22,0,0,0-2.38-2.13c-2.48,0-3.64,3.41-3.64,3.83s.35.33.43.33c.35,0,.37-.13.45-.4.65-2.16,1.75-3.06,2.68-3.06.4,0,.63.2.63.88a6.69,6.69,0,0,1-.78,2.5l-1.58,4m5.11-12.74a1,1,0,0,0-1-1,1.49,1.49,0,0,0-1.4,1.38,1,1,0,0,0,1,1A1.48,1.48,0,0,0,278.07,568.94Z" transform="translate(-64.59 -164.51)"/><path class="cls-7" d="M373.16,549.83c.51,0,1.19,0,1.19-.72s-.68-.71-1.22-.71H351.69c-.54,0-1.22,0-1.22.71s.68.72,1.18.72h21.51m0-7c.54,0,1.22,0,1.22-.72s-.68-.72-1.19-.72H351.65c-.5,0-1.18,0-1.18.72s.68.72,1.22.72Z" transform="translate(-64.59 -164.51)"/><path class="cls-7" d="M401.62,526.14a2.33,2.33,0,0,1-.72,1.32c-1.58,2-3,2.55-4.06,2.55-1.8,0-2.3-2-2.3-3.37a26.24,26.24,0,0,1,2-7.87c1.11-2.12,2.73-3.45,4.16-3.45,2.34,0,2.84,2.95,2.84,3.17a2.87,2.87,0,0,1-.11.61l-1.79,7m7.47-20.26s0-.4-.47-.4-3.95.33-4.56.4c-.29,0-.5.21-.5.68s.32.43.86.43c1.72,0,1.79.25,1.79.61l-.1.72L404,516.83a3.59,3.59,0,0,0-3.3-2.29c-4.2,0-8.66,5.27-8.66,10.52,0,3.37,2,5.74,4.78,5.74.72,0,2.51-.14,4.67-2.69a3.25,3.25,0,0,0,3.26,2.69,3,3,0,0,0,2.66-2,18.67,18.67,0,0,0,1.08-3.56c0-.36-.32-.36-.43-.36-.36,0-.4.15-.5.65-.61,2.33-1.26,4.45-2.73,4.45-1,0-1.08-.93-1.08-1.65a5.89,5.89,0,0,1,.21-1.72Z" transform="translate(-64.59 -164.51)"/><path class="cls-7" d="M415.54,530c-2.16,0-2.3-2.76-2.3-3.37a28,28,0,0,1,1.65-7.15c1.12-2.66,3-4.17,4.46-4.17,2.33,0,2.83,2.91,2.83,3.17s-2,8.08-2.08,8.22c-.54,1-2.55,3.3-4.56,3.3m9.95-15.08a.36.36,0,0,0-.36-.36c-.4,0-1.83,1.44-2.44,2.48a3.56,3.56,0,0,0-3.34-2.51c-4.24,0-8.66,5.31-8.66,10.52,0,3.52,2.12,5.74,4.74,5.74a6.16,6.16,0,0,0,4.24-2.15c-.32,1.26-1.51,6.1-1.62,6.43-.28,1-.57,1.15-2.58,1.18-.47,0-.83,0-.83.72,0,0,0,.4.47.4,1.15,0,2.41-.11,3.59-.11s2.51.11,3.7.11c.18,0,.65,0,.65-.72,0-.4-.36-.4-.94-.4-1.72,0-1.72-.25-1.72-.57a3.77,3.77,0,0,1,.14-.79Z" transform="translate(-64.59 -164.51)"/><path class="cls-7" d="M428.26,532.88a3.2,3.2,0,0,0-.22,1,2.22,2.22,0,0,0,2.38,2.13c2.5,0,3.61-3.46,3.61-3.84s-.33-.32-.4-.32c-.36,0-.38.15-.48.42-.58,2-1.68,3-2.66,3-.5,0-.62-.33-.62-.88a4,4,0,0,1,.4-1.6c.25-.68.52-1.36.8-2s1.13-2.88,1.23-3.18a3.22,3.22,0,0,0,.15-.8,2.22,2.22,0,0,0-2.38-2.13c-2.48,0-3.64,3.41-3.64,3.83s.35.33.43.33c.35,0,.37-.13.45-.4.65-2.16,1.75-3.06,2.68-3.06.4,0,.63.2.63.88a6.69,6.69,0,0,1-.78,2.5l-1.58,4m5.11-12.74a1,1,0,0,0-1-.95,1.49,1.49,0,0,0-1.4,1.38,1,1,0,0,0,1,.95A1.48,1.48,0,0,0,433.37,520.14Z" transform="translate(-64.59 -164.51)"/><line class="cls-9" x1="325.99" y1="381.18" x2="372.61" y2="381.18"/><path class="cls-7" d="M409.12,574.94a2.33,2.33,0,0,1-.72,1.32c-1.58,2-3,2.55-4.06,2.55-1.8,0-2.3-2-2.3-3.37a26.24,26.24,0,0,1,2-7.87c1.11-2.12,2.73-3.45,4.16-3.45,2.34,0,2.84,3,2.84,3.17a2.87,2.87,0,0,1-.11.61l-1.79,7m7.47-20.26s0-.4-.47-.4-3.95.33-4.56.4c-.29,0-.5.21-.5.68s.32.43.86.43c1.72,0,1.79.25,1.79.61l-.1.72-2.16,8.51a3.59,3.59,0,0,0-3.3-2.29c-4.2,0-8.66,5.27-8.66,10.52,0,3.37,2,5.74,4.78,5.74.72,0,2.51-.14,4.67-2.69a3.25,3.25,0,0,0,3.26,2.69,3,3,0,0,0,2.66-2,18.67,18.67,0,0,0,1.08-3.56c0-.36-.32-.36-.43-.36-.36,0-.4.15-.5.65-.61,2.33-1.26,4.45-2.73,4.45-1,0-1.08-.93-1.08-1.65a5.89,5.89,0,0,1,.21-1.72Z" transform="translate(-64.59 -164.51)"/><path class="cls-7" d="M424.15,564.84h3.38c.72,0,1.08,0,1.08-.72,0-.39-.36-.39-1-.39h-3.16c1.29-5.1,1.47-5.82,1.47-6a.94.94,0,0,0-1-1,1.53,1.53,0,0,0-1.44,1.29l-1.4,5.71h-3.37c-.72,0-1.08,0-1.08.68,0,.43.29.43,1,.43h3.16C419.16,575,419,575.65,419,576.3a3.16,3.16,0,0,0,3.3,3.3c3.66,0,5.71-5.24,5.71-5.53s-.29-.36-.43-.36c-.32,0-.36.11-.54.51-1.54,3.73-3.45,4.59-4.67,4.59-.75,0-1.11-.46-1.11-1.65a5.53,5.53,0,0,1,.22-1.72l2.65-10.6" transform="translate(-64.59 -164.51)"/></g><g class="cls-10"><path class="cls-6" d="M665.58,560.24Z" transform="translate(-64.59 -164.51)"/><path class="cls-7" d="M495.92,555.3h19.72l-9.84,19.75Zm21.87-1.8a1.08,1.08,0,0,0,.18-.5c0-.25,0-.29-.86-.29H492.33c-.83,0-.86,0-.86.29a1.2,1.2,0,0,0,.18.5l12.1,24.25c.25.46.36.68,1,.68s.72-.22,1-.68Z" transform="translate(-64.59 -164.51)"/><path class="cls-7" d="M541.55,567.26l-7.18-7.15c-.43-.43-.5-.5-.79-.5a.74.74,0,0,0-.72.72c0,.25.07.32.47.72l7.18,7.21-7.18,7.22c-.4.4-.47.47-.47.72a.74.74,0,0,0,.72.72c.29,0,.36-.07.79-.5l7.15-7.15L549,576.7a1.2,1.2,0,0,0,.54.22.7.7,0,0,0,.72-.72.69.69,0,0,0-.11-.39c0-.08-5.75-5.71-7.54-7.55l6.57-6.57c.18-.21.72-.68.9-.9a.84.84,0,0,0,.18-.46.7.7,0,0,0-.72-.72c-.29,0-.43.14-.83.54l-7.11,7.11" transform="translate(-64.59 -164.51)"/><path class="cls-7" d="M588.57,546.87c-.51.47-1.69,1.48-1.69,2.12a.77.77,0,0,0,.72.72c.32,0,.5-.25.68-.47a8.12,8.12,0,0,1,2.84-2.33c.25-.14.61-.32.61-.76s-.25-.53-.51-.71a3.69,3.69,0,0,1-1.47-2.05c-.07-.32-.21-.79-.72-.79a.74.74,0,0,0-.71.75,5.12,5.12,0,0,0,.86,2.09H577.07c-.61,0-1.25,0-1.25.71s.64.72,1.25.72h11.5" transform="translate(-64.59 -164.51)"/><path class="cls-7" d="M573,576.13a3.6,3.6,0,0,1-.79,0c-.35,0-.46-.07-.46-.36a2.93,2.93,0,0,1,.18-.82l2.47-10h6.79c3.45,0,4.13,2.66,4.13,4.2a7.37,7.37,0,0,1-7.43,7H573m1.62-12,2.23-8.91c.32-1.26.39-1.36,1.94-1.36h4.63c3.16,0,3.91,2.12,3.91,3.7,0,3.16-3.09,6.57-7.47,6.57Zm-5.42,10.34c-.36,1.4-.43,1.69-3.27,1.69-.61,0-1,0-1,.72,0,.39.32.39,1,.39h12.82c5.67,0,9.91-4.24,9.91-7.76,0-2.58-2.08-4.66-5.56-5.06,3.73-.68,7.5-3.34,7.5-6.75,0-2.66-2.37-5-6.68-5H571.89c-.69,0-1,0-1,.72,0,.4.33.4,1,.4a13.36,13.36,0,0,1,1.36.07c.65.07,1,.11,1,.57a2.82,2.82,0,0,1-.14.68Z" transform="translate(-64.59 -164.51)"/><path class="cls-7" d="M627.19,572.47c.5,0,1.19,0,1.19-.72s-.69-.72-1.23-.72H605.71c-.53,0-1.22,0-1.22.72s.69.72,1.19.72h21.51m0-7c.54,0,1.23,0,1.23-.72s-.69-.72-1.19-.72H605.68c-.5,0-1.19,0-1.19.72s.69.72,1.22.72Z" transform="translate(-64.59 -164.51)"/><path class="cls-7" d="M648.58,564.64c.18-.76.54-2.12.54-2.3a1,1,0,0,0-1-1,1.52,1.52,0,0,0-1.43,1.29l-5.17,20.79a2.27,2.27,0,0,0-.11.58,1,1,0,0,0,1,1,1.6,1.6,0,0,0,1.26-.75c.14-.33.61-2.2,2-7.73a5.65,5.65,0,0,0,3.48,1.12,6.17,6.17,0,0,0,4.78-2.62,3.2,3.2,0,0,0,3.23,2.62,3,3,0,0,0,2.66-2,18.34,18.34,0,0,0,1.07-3.55c0-.36-.32-.36-.43-.36-.36,0-.39.14-.5.64-.61,2.34-1.26,4.46-2.73,4.46-1,0-1.08-.94-1.08-1.65a24.24,24.24,0,0,1,.72-3.74l1-3.88c.11-.54.47-1.9.61-2.44.18-.83.54-2.19.54-2.41a1,1,0,0,0-1-1,1.44,1.44,0,0,0-1.41,1.26l-1.68,6.72c-.43,1.79-.83,3.3-.94,3.66,0,.18-1.76,3.45-4.67,3.45-1.79,0-2.65-1.19-2.65-3.13a12.62,12.62,0,0,1,.5-3.05l1.51-6" transform="translate(-64.59 -164.51)"/><path class="cls-7" d="M669,582.44a3.27,3.27,0,0,1-3.18-2.73,25.31,25.31,0,0,1-.36-5.39,21.22,21.22,0,0,1,.38-5.11,3.25,3.25,0,0,1,6.27-.23,20.49,20.49,0,0,1,.42,5.34,27.86,27.86,0,0,1-.32,5.29,3.28,3.28,0,0,1-3.21,2.83m5.81-7.79c0-2.76-.32-4.74-1.47-6.49A5.21,5.21,0,0,0,669,566c-5.82,0-5.82,6.84-5.82,8.65s0,8.49,5.82,8.49S674.81,576.45,674.81,574.65Z" transform="translate(-64.59 -164.51)"/><path class="cls-7" d="M703.27,546.87c-.51.47-1.69,1.48-1.69,2.12a.77.77,0,0,0,.72.72c.32,0,.5-.25.68-.47a8.12,8.12,0,0,1,2.84-2.33c.25-.14.61-.32.61-.76s-.25-.53-.5-.71a3.66,3.66,0,0,1-1.48-2.05c-.07-.32-.21-.79-.72-.79a.75.75,0,0,0-.72.75,5.19,5.19,0,0,0,.87,2.09h-12.1c-.62,0-1.26,0-1.26.71s.64.72,1.26.72h11.49" transform="translate(-64.59 -164.51)"/><path class="cls-7" d="M697.41,555.33c.29-1.18.36-1.5,2.33-1.5.58,0,1,0,1-.69,0-.32-.21-.43-.5-.43-.9,0-3.09.11-4,.11-1.19,0-4.1-.11-5.28-.11-.33,0-.76,0-.76.72,0,.4.29.4,1.22.4s1.19,0,2.09.07,1.11.21,1.11.72a3.09,3.09,0,0,1-.15.75l-4.12,16.48c-.87,3.49-3.31,5.39-5.18,5.39a3.44,3.44,0,0,1-3.41-2.22,2.27,2.27,0,0,0,.43,0,2.37,2.37,0,0,0,2.34-2.3,1.49,1.49,0,0,0-1.58-1.51c-.65,0-2.41.43-2.41,2.88,0,2.22,1.9,3.91,4.74,3.91a8.43,8.43,0,0,0,7.94-5.92l4.2-16.78" transform="translate(-64.59 -164.51)"/><path class="cls-7" d="M724,569h10c.5,0,1.19,0,1.19-.72s-.69-.71-1.19-.71H724V557.49c0-.5,0-1.19-.72-1.19s-.72.69-.72,1.19v10.06h-10c-.5,0-1.19,0-1.19.71s.69.72,1.19.72h10V579c0,.5,0,1.18.72,1.18s.72-.68.72-1.18V569" transform="translate(-64.59 -164.51)"/><path class="cls-7" d="M766.84,530.06c0-.86,0-.94-.83-.94-2.22,2.3-5.38,2.3-6.53,2.3v1.12a10.68,10.68,0,0,0,4.7-.94v18.6c0,1.3-.1,1.73-3.34,1.73h-1.15V553c1.26-.11,4.39-.11,5.82-.11s4.56,0,5.82.11v-1.11h-1.15c-3.23,0-3.34-.4-3.34-1.73V530.06" transform="translate(-64.59 -164.51)"/><line class="cls-9" x1="684.89" y1="403.82" x2="716.5" y2="403.82"/><path class="cls-7" d="M763.7,588.3a2,2,0,0,0-2.22,1.9,1.21,1.21,0,0,0,1.32,1.25,2.11,2.11,0,0,0,2-2.29c0-1.76-1.69-3.09-4.24-3.09-4.85,0-9.63,5.13-9.63,10.2,0,3.23,2.09,6.07,5.82,6.07,5.14,0,8.15-3.81,8.15-4.24a.49.49,0,0,0-.43-.47c-.18,0-.25.07-.46.36a9.38,9.38,0,0,1-7.19,3.56c-2.26,0-3.23-1.76-3.23-3.92a18.8,18.8,0,0,1,1.94-7.18c1.11-2.05,3.09-3.59,5.06-3.59a3.45,3.45,0,0,1,3.09,1.44" transform="translate(-64.59 -164.51)"/><path class="cls-7" d="M777.64,587h-.85a5.84,5.84,0,0,1-.66,2.28,13,13,0,0,1-2.48.15H769c2.63-2.33,3.51-3,5-4.21,1.86-1.48,3.59-3,3.59-5.41,0-3-2.66-4.89-5.87-4.89s-5.21,2.18-5.21,4.49a1.33,1.33,0,1,0,2.66.07c0-.45-.18-1.33-1.48-1.33a3.94,3.94,0,0,1,3.66-2.33,3.76,3.76,0,0,1,3.81,4c0,2.18-1.56,3.91-2.36,4.81l-6,6c-.25.23-.25.28-.25,1h10.33l.75-4.56" transform="translate(-64.59 -164.51)"/><path class="cls-7" d="M797.83,552.83a3.79,3.79,0,0,1-4-4.06c0-1,.9-6,2.37-8.15s3.2-3.2,5.43-3.2c3.91,0,4,4,4,4.74,0,2.59-2.3,10.67-7.83,10.67m8.48-12c-.36-2.23-1.83-4.24-4.63-4.24-2.19,0-4.53.57-7.33,3.37a10.68,10.68,0,0,0-3.23,7.44,6.37,6.37,0,0,0,6.61,6.39c8.54,0,12.28-12.06,12.28-17.2,0-5.71-3.34-9.3-7.76-9.3a6.82,6.82,0,0,0-6.86,5.67,1.23,1.23,0,0,0,1.37,1.26,2,2,0,0,0,1.94-1.9c0-1.26-1.12-1.26-1.69-1.26a5.79,5.79,0,0,1,5.17-2.87c2.62,0,5.14,1.86,5.14,6.5a24.64,24.64,0,0,1-1,6.14Z" transform="translate(-64.59 -164.51)"/><path class="cls-7" d="M835.57,522.57c-.51.47-1.69,1.48-1.69,2.12a.77.77,0,0,0,.72.72c.32,0,.5-.25.68-.47a8.12,8.12,0,0,1,2.84-2.33c.25-.14.61-.32.61-.76s-.25-.53-.5-.71a3.66,3.66,0,0,1-1.48-2c-.07-.32-.21-.79-.72-.79a.74.74,0,0,0-.71.75,5.12,5.12,0,0,0,.86,2.09h-12.1c-.62,0-1.26,0-1.26.71s.64.72,1.26.72h11.49" transform="translate(-64.59 -164.51)"/><path class="cls-7" d="M836.21,544.67a2.87,2.87,0,0,0,.18-.5.38.38,0,0,0-.43-.39c-.33,0-.4.21-.47.43-2.33,5.31-3.66,7.72-9.8,7.72h-5.25a3.6,3.6,0,0,1-.79,0c-.36,0-.46-.07-.46-.36a3.08,3.08,0,0,1,.17-.82l2.45-9.81h3.55c3.06,0,3.06.76,3.06,1.65a6.78,6.78,0,0,1-.26,1.77,1.05,1.05,0,0,0-.1.39.41.41,0,0,0,.46.39c.29,0,.4-.18.54-.71l2.05-8.41a.41.41,0,0,0-.43-.39c-.33,0-.4.21-.51.64-.75,2.73-1.4,3.56-4.7,3.56h-3.38l2.16-8.66c.32-1.25.36-1.4,1.94-1.4h5.06c4.38,0,5.46,1,5.46,4a9.2,9.2,0,0,1-.14,1.9c0,.22,0,.47,0,.65a.41.41,0,0,0,.43.43c.4,0,.43-.21.5-.9l.72-6.21c.11-1-.07-1-1-1H819.08c-.72,0-1.08,0-1.08.72,0,.39.32.39,1,.39,1.32,0,2.33,0,2.33.65a2.81,2.81,0,0,1-.18.86l-4.74,19c-.36,1.4-.43,1.69-3.27,1.69-.61,0-1,0-1,.68,0,.43.33.43,1,.43h18.64c.83,0,.86,0,1.11-.61l3.31-7.76" transform="translate(-64.59 -164.51)"/><line class="cls-9" x1="725.11" y1="403.82" x2="774.69" y2="403.82"/><path class="cls-7" d="M805.63,601.73a3.79,3.79,0,0,1-4-4.06c0-1,.9-6,2.37-8.15s3.2-3.2,5.43-3.2c3.91,0,4,4,4,4.74,0,2.59-2.3,10.67-7.83,10.67m8.48-12c-.36-2.23-1.83-4.24-4.63-4.24-2.19,0-4.53.57-7.33,3.37a10.68,10.68,0,0,0-3.23,7.44,6.37,6.37,0,0,0,6.61,6.39c8.54,0,12.28-12.06,12.28-17.2,0-5.71-3.34-9.3-7.76-9.3a6.82,6.82,0,0,0-6.86,5.67,1.23,1.23,0,0,0,1.37,1.26,2,2,0,0,0,1.93-1.9c0-1.26-1.11-1.26-1.68-1.26a5.81,5.81,0,0,1,5.17-2.88c2.62,0,5.13,1.87,5.13,6.51a24.17,24.17,0,0,1-1,6.14Z" transform="translate(-64.59 -164.51)"/><path class="cls-7" d="M826,587.58h3.38c.71,0,1.07,0,1.07-.72,0-.4-.36-.4-1-.4h-3.16c1.29-5.1,1.47-5.81,1.47-6a.94.94,0,0,0-1-1,1.54,1.54,0,0,0-1.44,1.29l-1.4,5.71h-3.38c-.71,0-1.07,0-1.07.69,0,.43.29.43,1,.43h3.16c-2.58,10.2-2.73,10.81-2.73,11.45a3.18,3.18,0,0,0,3.31,3.31c3.66,0,5.71-5.25,5.71-5.53s-.29-.36-.43-.36c-.33,0-.36.1-.54.5-1.55,3.74-3.45,4.6-4.67,4.6-.76,0-1.11-.47-1.11-1.65a5.91,5.91,0,0,1,.21-1.73L826,587.58" transform="translate(-64.59 -164.51)"/></g><g class="cls-11"><path class="cls-6" d="M646.47,294.74Z" transform="translate(-64.59 -164.51)"/><path class="cls-7" d="M567.11,277.8h19.72L577,297.55ZM589,276a1.15,1.15,0,0,0,.18-.5c0-.25,0-.29-.86-.29H563.52c-.83,0-.87,0-.87.29a1.15,1.15,0,0,0,.18.5l12.11,24.25c.25.46.36.68,1,.68s.72-.22,1-.68Z" transform="translate(-64.59 -164.51)"/><path class="cls-7" d="M607.38,290.73a2.8,2.8,0,1,0-2.8,2.8,2.8,2.8,0,0,0,2.8-2.8" transform="translate(-64.59 -164.51)"/><path class="cls-7" d="M643.15,269.38c-.5.46-1.68,1.47-1.68,2.11a.77.77,0,0,0,.71.72c.33,0,.51-.25.69-.46a8.05,8.05,0,0,1,2.83-2.34c.25-.14.61-.32.61-.75s-.25-.54-.5-.72a3.64,3.64,0,0,1-1.47-2.05c-.07-.32-.22-.79-.72-.79a.75.75,0,0,0-.72.75,5.27,5.27,0,0,0,.86,2.09h-12.1c-.61,0-1.26,0-1.26.72s.65.72,1.26.72h11.49" transform="translate(-64.59 -164.51)"/><path class="cls-7" d="M643.69,291.38a2.26,2.26,0,0,0,.18-.51.38.38,0,0,0-.43-.39c-.32,0-.39.21-.46.43-2.34,5.31-3.67,7.72-9.81,7.72h-5.24a3.55,3.55,0,0,1-.79,0c-.36,0-.47-.07-.47-.35a3,3,0,0,1,.18-.83l2.44-9.81h3.56c3,0,3,.76,3,1.66a7,7,0,0,1-.25,1.76,1.11,1.11,0,0,0-.11.39.43.43,0,0,0,.47.4c.29,0,.39-.18.54-.72l2.05-8.41a.41.41,0,0,0-.44-.39c-.32,0-.39.21-.5.65-.75,2.73-1.4,3.55-4.7,3.55h-3.38l2.15-8.65c.33-1.26.36-1.4,1.95-1.4h5.06c4.38,0,5.46,1,5.46,4a8.69,8.69,0,0,1-.15,1.91c0,.21,0,.46,0,.64a.41.41,0,0,0,.43.43c.39,0,.43-.21.5-.9l.72-6.21c.11-1-.07-1-1-1H626.56c-.71,0-1.07,0-1.07.72,0,.4.32.4,1,.4,1.33,0,2.34,0,2.34.64a2.81,2.81,0,0,1-.18.86l-4.74,19c-.36,1.4-.43,1.69-3.27,1.69-.61,0-1,0-1,.68,0,.43.32.43,1,.43h18.64c.82,0,.86,0,1.11-.61l3.3-7.75" transform="translate(-64.59 -164.51)"/><path class="cls-7" d="M681.48,295c.5,0,1.18,0,1.18-.72s-.68-.72-1.22-.72H660c-.54,0-1.22,0-1.22.72s.68.72,1.18.72h21.52m0-7c.54,0,1.22,0,1.22-.72s-.68-.72-1.18-.72H660c-.5,0-1.18,0-1.18.72s.68.72,1.22.72Z" transform="translate(-64.59 -164.51)"/><path class="cls-7" d="M714.13,275.15c-2.52,0-3.09-2.87-3.09-3.2,0-.14.18-.86.28-1.33,1-4,1.37-5.31,2.16-6.75,1.54-2.62,3.34-3.41,4.45-3.41,1.33,0,2.48,1,2.48,3.52a21.78,21.78,0,0,1-2,7.76c-1.19,2.26-2.91,3.41-4.27,3.41m-8,6.61a2.37,2.37,0,0,0-.1.57,1,1,0,0,0,1,1,1.6,1.6,0,0,0,1.26-.75c.18-.33,1.33-5.14,2.3-9a3.85,3.85,0,0,0,3.55,2.41c4.2,0,8.84-5.06,8.84-10.42,0-3.8-2.37-5.85-5-5.85-3.49,0-7.26,3.59-8.34,8Z" transform="translate(-64.59 -164.51)"/><line class="cls-9" x1="634.37" y1="126.32" x2="665.01" y2="126.32"/><path class="cls-7" d="M709.67,316.33c.57,0,1.22,0,1.22-.61s-.43-.51-1-.51H704c.86-3,2.88-5.13,6.14-5.13h1.12c.61,0,1.18,0,1.18-.61s-.46-.51-1.08-.51h-1.25c-4.67,0-9.48,3.6-9.48,9.09,0,3.95,2.69,6.79,6.5,6.79,2.33,0,4.67-1.44,4.67-1.83,0-.11,0-.51-.36-.51-.08,0-.15,0-.47.22a7.25,7.25,0,0,1-3.77,1.33c-2.09,0-3.88-1.51-3.88-4.67a14.85,14.85,0,0,1,.39-3.05h5.93" transform="translate(-64.59 -164.51)"/><path class="cls-7" d="M720.69,329.54a3.27,3.27,0,0,1-3.19-2.73,26,26,0,0,1-.35-5.39,21.22,21.22,0,0,1,.38-5.11,3.25,3.25,0,0,1,6.26-.23,20.44,20.44,0,0,1,.43,5.34,27,27,0,0,1-.33,5.29,3.27,3.27,0,0,1-3.2,2.83m5.81-7.79c0-2.76-.33-4.74-1.48-6.49a5.19,5.19,0,0,0-4.33-2.16c-5.82,0-5.82,6.84-5.82,8.65s0,8.5,5.82,8.5S726.5,323.55,726.5,321.75Z" transform="translate(-64.59 -164.51)"/></g><g class="cls-12"><path class="cls-6" d="M651.7,373.76Z" transform="translate(-64.59 -164.51)"/><path class="cls-7" d="M581.64,368.12h19.72l-9.84,19.75Zm21.87-1.8a1.2,1.2,0,0,0,.18-.5c0-.25,0-.29-.86-.29H578.05c-.83,0-.86,0-.86.29a1.08,1.08,0,0,0,.18.5l12.1,24.25c.25.46.36.68,1,.68s.72-.22,1-.68Z" transform="translate(-64.59 -164.51)"/><path class="cls-7" d="M621.81,381.05a2.8,2.8,0,1,0-2.8,2.8,2.8,2.8,0,0,0,2.8-2.8" transform="translate(-64.59 -164.51)"/><path class="cls-7" d="M657.78,359.69c-.5.47-1.68,1.48-1.68,2.12a.77.77,0,0,0,.71.72c.33,0,.51-.25.69-.47a8.16,8.16,0,0,1,2.83-2.33c.26-.14.62-.32.62-.75s-.26-.54-.51-.72a3.69,3.69,0,0,1-1.47-2.05c-.07-.32-.22-.79-.72-.79a.75.75,0,0,0-.72.75,5.19,5.19,0,0,0,.87,2.09H646.29c-.61,0-1.26,0-1.26.72s.65.71,1.26.71h11.49" transform="translate(-64.59 -164.51)"/><path class="cls-7" d="M642.35,389a3.6,3.6,0,0,1-.79,0c-.36,0-.46-.07-.46-.36a3.08,3.08,0,0,1,.17-.82l2.48-10h6.79c3.45,0,4.13,2.66,4.13,4.2a7.38,7.38,0,0,1-7.43,7h-4.89m1.62-12,2.22-8.91c.33-1.26.4-1.36,1.94-1.36h4.64c3.16,0,3.91,2.12,3.91,3.7,0,3.16-3.09,6.57-7.47,6.57Zm-5.42,10.34c-.36,1.4-.44,1.69-3.27,1.69-.61,0-1,0-1,.72,0,.39.32.39,1,.39H648.1c5.67,0,9.91-4.24,9.91-7.76,0-2.58-2.08-4.66-5.57-5.06,3.74-.68,7.51-3.34,7.51-6.75,0-2.66-2.37-5-6.68-5H641.2c-.68,0-1,0-1,.72,0,.4.32.4,1,.4a13.36,13.36,0,0,1,1.36.07c.65.07,1,.11,1,.57a2.82,2.82,0,0,1-.14.68Z" transform="translate(-64.59 -164.51)"/><path class="cls-7" d="M696.41,385.29c.5,0,1.18,0,1.18-.72s-.68-.72-1.22-.72H674.93c-.54,0-1.22,0-1.22.72s.68.72,1.19.72h21.51m0-7c.54,0,1.22,0,1.22-.72s-.68-.72-1.18-.72H674.9c-.51,0-1.19,0-1.19.72s.68.72,1.22.72Z" transform="translate(-64.59 -164.51)"/><path class="cls-7" d="M718.54,390.06c-1.4,0-3.52-.9-4.16-4.34a48.41,48.41,0,0,1-.4-7.58,47.75,47.75,0,0,1,.29-6.61c.68-4.27,3.37-4.6,4.27-4.6,1.19,0,3.56.65,4.24,4.21a68.73,68.73,0,0,1,0,14.43c-.54,3.41-2.58,4.49-4.2,4.49m7.58-11.49a19.17,19.17,0,0,0-1.44-8.4,6.66,6.66,0,0,0-6.1-4,6.59,6.59,0,0,0-6.25,4.28,19.2,19.2,0,0,0-1.33,8.15c0,2.69.14,5.93,1.62,8.65a6.71,6.71,0,0,0,12.17-.53A19.14,19.14,0,0,0,726.12,378.57Z" transform="translate(-64.59 -164.51)"/></g><g class="cls-13"><path class="cls-6" d="M656,456Z" transform="translate(-64.59 -164.51)"/><path class="cls-7" d="M545.24,451.06H565l-9.84,19.75Zm21.87-1.8a1.25,1.25,0,0,0,.18-.5c0-.25,0-.29-.86-.29H541.65c-.83,0-.86,0-.86.29a1.25,1.25,0,0,0,.18.5l12.1,24.24c.25.47.36.69,1,.69s.72-.22,1-.69Z" transform="translate(-64.59 -164.51)"/><path class="cls-7" d="M590.87,463l-7.18-7.15c-.43-.43-.51-.5-.79-.5a.74.74,0,0,0-.72.71c0,.26.07.33.47.72l7.18,7.22-7.18,7.22c-.4.4-.47.47-.47.72a.75.75,0,0,0,.72.72c.28,0,.36-.08.79-.51l7.14-7.14,7.44,7.43a1.2,1.2,0,0,0,.54.22.7.7,0,0,0,.72-.72.72.72,0,0,0-.11-.4c0-.07-5.75-5.71-7.54-7.54l6.57-6.57c.18-.22.72-.68.9-.9a.85.85,0,0,0,.18-.47.7.7,0,0,0-.72-.71c-.29,0-.43.14-.83.53L590.87,463" transform="translate(-64.59 -164.51)"/><path class="cls-7" d="M637.59,442.63c-.51.47-1.69,1.47-1.69,2.12a.77.77,0,0,0,.72.72c.32,0,.5-.25.68-.47a8.12,8.12,0,0,1,2.84-2.33c.25-.15.61-.33.61-.76s-.26-.54-.51-.72a3.63,3.63,0,0,1-1.47-2c-.07-.33-.21-.79-.72-.79a.74.74,0,0,0-.72.75,5.11,5.11,0,0,0,.87,2.08H626.09c-.61,0-1.25,0-1.25.72s.64.72,1.25.72h11.5" transform="translate(-64.59 -164.51)"/><path class="cls-7" d="M638.23,464.63a3.19,3.19,0,0,0,.18-.5.38.38,0,0,0-.43-.4c-.33,0-.4.22-.47.44-2.33,5.31-3.66,7.72-9.81,7.72h-5.24a3.6,3.6,0,0,1-.79,0c-.36,0-.47-.07-.47-.36a2.86,2.86,0,0,1,.18-.82l2.45-9.81h3.55c3,0,3,.76,3,1.65a7,7,0,0,1-.25,1.76,1.1,1.1,0,0,0-.1.4.41.41,0,0,0,.46.39c.29,0,.4-.18.54-.71l2-8.41a.41.41,0,0,0-.43-.39c-.33,0-.4.21-.51.64-.75,2.73-1.4,3.56-4.7,3.56h-3.38l2.16-8.66c.32-1.25.36-1.4,1.94-1.4h5.06c4.38,0,5.46,1,5.46,4a9.2,9.2,0,0,1-.14,1.9c0,.22,0,.47,0,.65a.41.41,0,0,0,.43.43c.4,0,.43-.22.5-.9l.72-6.21c.11-1-.07-1-1-1H621.1c-.72,0-1.08,0-1.08.72,0,.39.32.39,1,.39,1.32,0,2.33,0,2.33.65a2.86,2.86,0,0,1-.18.86l-4.74,19c-.36,1.4-.43,1.69-3.27,1.69-.61,0-1,0-1,.68,0,.43.33.43,1,.43h18.64c.83,0,.86,0,1.11-.61l3.31-7.76" transform="translate(-64.59 -164.51)"/><path class="cls-7" d="M676,468.22c.5,0,1.18,0,1.18-.72s-.68-.71-1.22-.71H654.53c-.54,0-1.22,0-1.22.71s.68.72,1.19.72H676m0-7c.54,0,1.22,0,1.22-.72s-.68-.72-1.18-.72H654.5c-.51,0-1.19,0-1.19.72s.68.72,1.22.72Z" transform="translate(-64.59 -164.51)"/><path class="cls-7" d="M712.87,464.74c.61,0,1.25,0,1.25-.72s-.64-.72-1.25-.72H693.44c-.61,0-1.26,0-1.26.72s.65.72,1.26.72h19.43" transform="translate(-64.59 -164.51)"/><path class="cls-7" d="M729.55,448.58a3.78,3.78,0,0,1-3.95-4.05c0-1,.9-6,2.37-8.16s3.2-3.19,5.43-3.19c3.91,0,4,4,4,4.74,0,2.58-2.3,10.66-7.83,10.66m8.48-12c-.36-2.22-1.83-4.23-4.63-4.23-2.19,0-4.53.57-7.33,3.37a10.65,10.65,0,0,0-3.23,7.44,6.37,6.37,0,0,0,6.6,6.39c8.55,0,12.29-12.07,12.29-17.2,0-5.71-3.34-9.3-7.76-9.3a6.81,6.81,0,0,0-6.86,5.67,1.23,1.23,0,0,0,1.36,1.26,2,2,0,0,0,1.94-1.91c0-1.25-1.11-1.25-1.68-1.25A5.81,5.81,0,0,1,733.9,424c2.62,0,5.13,1.87,5.13,6.5a24.11,24.11,0,0,1-1,6.14Z" transform="translate(-64.59 -164.51)"/><path class="cls-7" d="M767.49,418.33c-.51.47-1.69,1.47-1.69,2.12a.77.77,0,0,0,.72.72c.32,0,.5-.25.68-.47a8.12,8.12,0,0,1,2.84-2.33c.25-.15.61-.33.61-.76s-.25-.54-.51-.72a3.63,3.63,0,0,1-1.47-2c-.07-.33-.21-.79-.72-.79a.74.74,0,0,0-.72.75,5.11,5.11,0,0,0,.87,2.08H756c-.61,0-1.25,0-1.25.72s.64.72,1.25.72h11.5" transform="translate(-64.59 -164.51)"/><path class="cls-7" d="M752,447.69a3.6,3.6,0,0,1-.79,0c-.36,0-.46-.07-.46-.36a3,3,0,0,1,.17-.82l2.48-10h6.79c3.45,0,4.13,2.65,4.13,4.2a7.38,7.38,0,0,1-7.43,7H752m1.62-12,2.22-8.9c.33-1.26.4-1.37,2-1.37h4.63c3.16,0,3.91,2.12,3.91,3.7,0,3.16-3.09,6.57-7.47,6.57ZM748.15,446c-.36,1.4-.43,1.69-3.27,1.69-.61,0-1,0-1,.71,0,.4.32.4,1,.4H757.7c5.67,0,9.91-4.24,9.91-7.76,0-2.58-2.08-4.67-5.57-5.06,3.74-.68,7.51-3.34,7.51-6.75,0-2.66-2.37-5-6.68-5H750.8c-.68,0-1,0-1,.72,0,.39.33.39,1,.39a11.71,11.71,0,0,1,1.36.08c.65.07,1,.1,1,.57a2.92,2.92,0,0,1-.14.68Z" transform="translate(-64.59 -164.51)"/><line class="cls-9" x1="656.77" y1="299.58" x2="706.81" y2="299.58"/><path class="cls-7" d="M737.55,497.48a3.78,3.78,0,0,1-3.95-4.05c0-1,.9-6,2.37-8.16s3.2-3.19,5.43-3.19c3.91,0,4,4,4,4.74,0,2.58-2.3,10.66-7.83,10.66m8.48-12c-.36-2.23-1.83-4.24-4.63-4.24-2.19,0-4.53.57-7.33,3.37a10.65,10.65,0,0,0-3.23,7.44,6.37,6.37,0,0,0,6.6,6.39c8.55,0,12.29-12.07,12.29-17.2,0-5.71-3.34-9.3-7.76-9.3a6.81,6.81,0,0,0-6.86,5.67,1.23,1.23,0,0,0,1.36,1.26,2,2,0,0,0,1.94-1.91c0-1.25-1.11-1.25-1.68-1.25a5.81,5.81,0,0,1,5.17-2.88c2.62,0,5.13,1.87,5.13,6.5a24.23,24.23,0,0,1-1,6.15Z" transform="translate(-64.59 -164.51)"/><path class="cls-7" d="M757.8,483.33h3.38c.71,0,1.07,0,1.07-.71,0-.4-.36-.4-1-.4h-3.15c1.29-5.1,1.47-5.82,1.47-6a.94.94,0,0,0-1-1,1.52,1.52,0,0,0-1.44,1.29l-1.4,5.71H752.3c-.71,0-1.07,0-1.07.68,0,.43.28.43,1,.43h3.16c-2.58,10.2-2.73,10.81-2.73,11.46A3.18,3.18,0,0,0,756,498.1c3.66,0,5.71-5.25,5.71-5.54s-.29-.36-.44-.36c-.32,0-.35.11-.53.51-1.55,3.73-3.45,4.59-4.67,4.59-.76,0-1.11-.46-1.11-1.65a5.89,5.89,0,0,1,.21-1.72l2.66-10.6" transform="translate(-64.59 -164.51)"/></g></svg>