<svg id="Layer_1" data-name="Layer 1" xmlns="http://www.w3.org/2000/svg" xmlns:xlink="http://www.w3.org/1999/xlink" viewBox="0 0 935.49 766.23"><defs><style>.cls-1{fill:none;}.cls-1,.cls-19,.cls-2,.cls-3,.cls-4,.cls-5,.cls-6,.cls-7{stroke:#231f20;}.cls-1,.cls-10,.cls-11,.cls-12,.cls-13,.cls-14,.cls-15,.cls-16,.cls-18,.cls-19,.cls-2,.cls-3,.cls-4,.cls-5,.cls-6,.cls-7,.cls-8,.cls-9{stroke-miterlimit:10;}.cls-1,.cls-10,.cls-11,.cls-12,.cls-13,.cls-14,.cls-15,.cls-18,.cls-19,.cls-2,.cls-3,.cls-4,.cls-5,.cls-6,.cls-7,.cls-8,.cls-9{stroke-width:5px;}.cls-2{fill:#873c96;}.cls-17,.cls-3{fill:#231f20;}.cls-4{fill:#a9519f;}.cls-5{fill:url(#linear-gradient);}.cls-6{fill:#a756a1;}.cls-7{fill:#922b90;}.cls-16,.cls-8{fill:#808285;}.cls-10,.cls-11,.cls-12,.cls-13,.cls-14,.cls-15,.cls-16,.cls-18,.cls-8,.cls-9{stroke:#fff;}.cls-9{fill:#ca92c1;}.cls-10{fill:#b0ddd1;}.cls-11{fill:#a7d8f5;}.cls-12{fill:#bce6fb;}.cls-13{fill:#9fd4ae;}.cls-14{fill:#d993c0;}.cls-15{fill:#a0d6c1;}.cls-16{stroke-width:3px;}.cls-17{font-size:61.42px;font-family:Courier;}.cls-18,.cls-19,.cls-20{fill:#fff;}</style><linearGradient id="linear-gradient" x1="468.83" y1="738.79" x2="468.83" y2="675.32" gradientUnits="userSpaceOnUse"><stop offset="0" stop-color="#b4519f"/><stop offset="1" stop-color="#a9519f"/></linearGradient></defs><path class="cls-1" d="M410,685" transform="translate(-12.26 -66.89)"/><path class="cls-2" d="M890,741.59H70.05A55.28,55.28,0,0,1,14.76,686.3V124.67A55.28,55.28,0,0,1,70.05,69.39H890a55.28,55.28,0,0,1,55.29,55.28V686.3A55.28,55.28,0,0,1,890,741.59Z" transform="translate(-12.26 -66.89)"/><rect class="cls-3" x="48.09" y="48.43" width="841.78" height="466.29"/><rect class="cls-4" x="323.58" y="740.56" width="294.56" height="23.17"/><rect class="cls-5" x="370.02" y="675.32" width="197.61" height="63.47"/><path class="cls-6" d="M2.5,561.17H933a0,0,0,0,1,0,0v71.91a43.45,43.45,0,0,1-43.45,43.45H45.95A43.45,43.45,0,0,1,2.5,633.08V561.17a0,0,0,0,1,0,0Z"/><ellipse class="cls-7" cx="468.24" cy="617.33" rx="29.87" ry="32"/><line class="cls-8" x1="91.32" y1="167.62" x2="688.82" y2="166.63"/><line class="cls-8" x1="88.23" y1="285.39" x2="756.61" y2="284.4"/><line class="cls-8" x1="88.61" y1="405.72" x2="851.29" y2="404.49"/><line class="cls-8" x1="89.4" y1="435.47" x2="852.06" y2="434.23"/><rect class="cls-9" x="177.67" y="128.13" width="85.24" height="80.37"/><rect class="cls-10" x="335.4" y="126.97" width="85.24" height="80.37"/><rect class="cls-11" x="493.7" y="126.97" width="85.24" height="80.37"/><rect class="cls-12" x="152.68" y="246.1" width="85.24" height="80.37"/><rect class="cls-13" x="272.91" y="245.37" width="85.24" height="80.37"/><rect class="cls-14" x="395.65" y="244.37" width="85.24" height="80.37"/><rect class="cls-15" x="517.26" y="245.55" width="85.24" height="80.37"/><line class="cls-16" x1="729.06" y1="207.88" x2="730" y2="402.91"/><line class="cls-16" x1="796.8" y1="328.2" x2="796.98" y2="431.51"/><line class="cls-16" x1="802" y1="328.62" x2="802.12" y2="431.2"/><line class="cls-16" x1="734.49" y1="209.55" x2="735.43" y2="404.59"/><text class="cls-17" transform="translate(195.4 188.97) scale(1.32 1)">W</text><text class="cls-17" transform="translate(354.33 186.82) scale(1.32 1)">E</text><text class="cls-17" transform="translate(511.6 184.83) scale(1.32 1)">L</text><text class="cls-17" transform="translate(171.18 305.27) scale(1.32 1)">C</text><text class="cls-17" transform="translate(290.62 303.28) scale(1.32 1)">O</text><text class="cls-17" transform="translate(412.06 303.28) scale(1.32 1)">M</text><text class="cls-17" transform="translate(533.5 302.28) scale(1.32 1)">E</text><polygon class="cls-18" points="774.46 207.88 714.87 207.88 689.21 207.88 689.21 127.5 774.46 127.5 774.46 207.88"/><path class="cls-19" d="M720.26,248.91a25,25,0,1,1,50,0,23,23,0,0,1-.19,3H720.45A23,23,0,0,1,720.26,248.91Z" transform="translate(-12.26 -66.89)"/><rect class="cls-20" x="701.23" y="181.53" width="62.71" height="8.3"/><line class="cls-1" x1="731.14" y1="182.88" x2="756.36" y2="148.82"/><polygon class="cls-18" points="843.88 326.81 784.29 326.81 758.64 326.81 758.64 246.44 843.88 246.44 843.88 326.81"/><path class="cls-19" d="M789.69,367.84a25,25,0,1,1,50,0,23,23,0,0,1-.19,3H789.88A23,23,0,0,1,789.69,367.84Z" transform="translate(-12.26 -66.89)"/><rect class="cls-20" x="770.65" y="300.47" width="62.71" height="8.3"/><line class="cls-1" x1="800.57" y1="301.82" x2="825.78" y2="267.75"/></svg>