<svg id="Layer_1" data-name="Layer 1" xmlns="http://www.w3.org/2000/svg" viewBox="0 0 1784.95 750.73"><defs><style>.cls-1{fill:#e764a5;}.cls-1,.cls-2,.cls-3,.cls-4,.cls-6{stroke:#fff;stroke-width:5px;}.cls-1,.cls-2,.cls-3,.cls-4,.cls-5,.cls-6{stroke-miterlimit:10;}.cls-2{fill:#6bc9ca;}.cls-3{fill:#a14d9d;}.cls-4{fill:#e991bd;}.cls-5{fill:none;stroke:#231f20;stroke-width:6px;}.cls-6{fill:#f8d1e3;}.cls-7{font-size:154.46px;fill:#86d4ee;font-family:HelveticaNeue-CondensedBlack, Helvetica Neue;font-weight:800;}</style></defs><path class="cls-1" d="M402.79,402.71a357.94,357.94,0,0,1-2,37.61,258.3,258.3,0,0,0-113.7,38.28,252.77,252.77,0,0,0-.2-152.43A257.78,257.78,0,0,0,400.74,364.8,355.67,355.67,0,0,1,402.79,402.71Z" transform="translate(-40.43 -43.54)"/><path class="cls-2" d="M47.28,151.22H42.93V47.27h4.35a354.94,354.94,0,0,1,121.11,21.2C293.71,113.81,386.2,227.66,400.74,364.81a257.66,257.66,0,0,1-113.83-38.63,252,252,0,0,0-108.17-137.9A250.34,250.34,0,0,0,47.28,151.22Z" transform="translate(-40.43 -43.54)"/><path class="cls-3" d="M400.78,440.32C386.33,577.71,293.6,691.78,168,737.09a354.26,354.26,0,0,1-120.74,21H42.93v-104h4.35a250.32,250.32,0,0,0,130.81-36.6,252.16,252.16,0,0,0,109-138.94A257.84,257.84,0,0,1,400.78,440.32Z" transform="translate(-40.43 -43.54)"/><path class="cls-4" d="M657.57,221.36V584.68A260.61,260.61,0,0,0,546.31,469.57V335.84A260.49,260.49,0,0,0,657.57,221.36Z" transform="translate(-40.43 -43.54)"/><path class="cls-5" d="M210.76,324.93" transform="translate(-40.43 -43.54)"/><path class="cls-3" d="M657.57,46V221.36A260.49,260.49,0,0,1,546.31,335.84V46Z" transform="translate(-40.43 -43.54)"/><path class="cls-2" d="M657.57,584.68V756.93H546.31V469.57A260.4,260.4,0,0,1,657.57,584.68Z" transform="translate(-40.43 -43.54)"/><path class="cls-6" d="M546.31,335.84V469.57a258.28,258.28,0,0,0-121.8-30.32q-12,0-23.73,1.07a355.59,355.59,0,0,0,0-75.51q12,1.13,24.2,1.13A258.13,258.13,0,0,0,546.31,335.84Z" transform="translate(-40.43 -43.54)"/><text class="cls-7" transform="translate(740.34 139.52) scale(1.39 1)">DIEGO<tspan x="0" y="185.36">ALEJANDRO</tspan><tspan x="0" y="370.71">HERRERA</tspan><tspan x="0" y="556.07">ROJAS</tspan></text></svg>